<?xml version="1.0" encoding="UTF-8" standalone="no"?>
<!DOCTYPE svg PUBLIC "-//W3C//DTD SVG 1.1//EN" "http://www.w3.org/Graphics/SVG/1.1/DTD/svg11.dtd">
<svg width="100%" height="100%" viewBox="0 0 16 16" version="1.1" xmlns="http://www.w3.org/2000/svg" xmlns:xlink="http://www.w3.org/1999/xlink" xml:space="preserve" xmlns:serif="http://www.serif.com/" style="fill-rule:evenodd;clip-rule:evenodd;stroke-linejoin:round;stroke-miterlimit:2;">
    <path d="M13,11L5.5,11C4.677,11 4,11.677 4,12.5C4,13.323 4.677,14 5.5,14L13,14L13,15L5.5,15C4.129,15 3,13.871 3,12.5L3,3.5C3,2.129 4.129,1 5.5,1L13,1L13,11ZM6,5L11,5L11,3L6,3L6,5Z" style="fill:white;fill-rule:nonzero;"/>
    <path d="M12,13L5.5,13C5.226,13 5,12.774 5,12.5C5,12.226 5.226,12 5.5,12L12,12L12,13Z" style="fill:white;fill-rule:nonzero;"/>
</svg>
