<?xml version="1.0" encoding="utf-8"?>
<!-- Generator: Adobe Illustrator 22.0.0, SVG Export Plug-In . SVG Version: 6.00 Build 0)  -->
<svg version="1.1" id="Layer_1" xmlns="http://www.w3.org/2000/svg" xmlns:xlink="http://www.w3.org/1999/xlink" x="0px" y="0px"
	 viewBox="0 0 16 16" style="enable-background:new 0 0 16 16;" xml:space="preserve">
<style type="text/css">
	.st0{fill:#FFFFFF;}
	.st1{fill:#FF0055;}
</style>
<path class="st0" d="M13.6,1C14.4,1,15,1.7,15,2.5c0,0.4-0.1,0.7-0.4,1L8,10.9C7.8,9.4,6.6,8.2,5.1,8l7.5-6.7
	C12.9,1.1,13.2,1,13.6,1"/>
<g id="Layer_2">
	<path class="st1" d="M4.7,9C6,9,7,10,7,11.3v0.4c0,0.8-0.4,1.6-1,2.1L5.8,14c-0.8,0.7-1.9,1-3,1H1.7c-0.3,0-0.5-0.2-0.5-0.5
		c0-0.1,0-0.1,0-0.2l1.3-3.8C2.8,9.6,3.7,9,4.7,9"/>
</g>
</svg>
