<?xml version="1.0" encoding="UTF-8" standalone="no"?>
<!DOCTYPE svg PUBLIC "-//W3C//DTD SVG 1.1//EN" "http://www.w3.org/Graphics/SVG/1.1/DTD/svg11.dtd">
<svg width="100%" height="100%" viewBox="0 0 16 16" version="1.1" xmlns="http://www.w3.org/2000/svg" xmlns:xlink="http://www.w3.org/1999/xlink" xml:space="preserve" xmlns:serif="http://www.serif.com/" style="fill-rule:evenodd;clip-rule:evenodd;stroke-linejoin:round;stroke-miterlimit:2;">
    <path d="M14,7C14.549,7 15,7.451 15,8C15,8.549 14.549,9 14,9L12,9L12,10.126C13.725,10.57 15,12.136 15,14C15,14.549 14.549,15 14,15C13.451,15 13,14.549 13,14C13,13.19 12.517,12.493 11.823,12.179C11.307,13.852 9.75,15.002 8,15.002C6.249,15.002 4.692,13.852 4.176,12.179C3.462,12.502 3.001,13.216 3,14C3,14.549 2.549,15 2,15C1.451,15 1,14.549 1,14C1,12.181 2.239,10.581 4,10.126L4,9L2,9C1.451,9 1,8.549 1,8C1,7.451 1.451,7 2,7L14,7ZM8,1C9.682,1 11.193,2.061 11.763,3.644C11.893,3.491 11.974,3.303 11.995,3.103L12.005,2.897C12.056,2.389 12.489,1.997 13,1.997C13.549,1.997 14,2.448 14,2.997C14,2.998 14,2.999 14,3C13.999,4.267 13.195,5.403 12,5.825L12,6L4,6L4,5.825C2.805,5.403 2.001,4.267 2,3C2,2.999 2,2.998 2,2.997C2,2.448 2.451,1.997 3,1.997C3.511,1.997 3.944,2.389 3.995,2.897L4.005,3.103C4.025,3.308 4.11,3.494 4.236,3.643C4.807,2.06 6.318,0.999 8,1" style="fill:white;fill-rule:nonzero;"/>
</svg>
