<?xml version="1.0" encoding="UTF-8" standalone="no"?>
<!DOCTYPE svg PUBLIC "-//W3C//DTD SVG 1.1//EN" "http://www.w3.org/Graphics/SVG/1.1/DTD/svg11.dtd">
<svg fill="#ffffff" width="100%" height="100%" viewBox="0 0 16 16" version="1.1" xmlns="http://www.w3.org/2000/svg" xmlns:xlink="http://www.w3.org/1999/xlink" xml:space="preserve" xmlns:serif="http://www.serif.com/" style="fill-rule:evenodd;clip-rule:evenodd;stroke-linejoin:round;stroke-miterlimit:2;">
    <path d="M5.037,7C5.037,7 14.081,7 14.081,7C14.63,7 15.081,7.451 15.081,8C15.081,8.115 15.061,8.228 15.023,8.336L13.473,12.673C13.19,13.466 12.434,13.999 11.592,14L3,14C2.679,14 2.362,13.922 2.077,13.773L3.587,8.113C3.762,7.458 4.359,7 5.037,7Z" style="fill:white;fill-rule:nonzero;"/>
    <path d="M4.586,2C4.851,2 5.106,2.106 5.293,2.293L7,4L11,4C12.097,4 13,4.903 13,6L5.036,6C3.907,6 2.912,6.765 2.621,7.855L1.255,12.975C1.088,12.677 1,12.341 1,12L1,4C1,2.903 1.903,2 3,2L4.586,2Z" style="fill:white;fill-rule:nonzero;"/>
</svg>
