<?xml version="1.0" encoding="UTF-8" standalone="no"?>
<!DOCTYPE svg PUBLIC "-//W3C//DTD SVG 1.1//EN" "http://www.w3.org/Graphics/SVG/1.1/DTD/svg11.dtd">
<svg width="100%" height="100%" viewBox="0 0 16 16" version="1.1" xmlns="http://www.w3.org/2000/svg" xmlns:xlink="http://www.w3.org/1999/xlink" xml:space="preserve" xmlns:serif="http://www.serif.com/" style="fill-rule:evenodd;clip-rule:evenodd;stroke-linejoin:round;stroke-miterlimit:2;">
    <path d="M8,1C11.84,1 15,4.16 15,8C15,11.84 11.84,15 8,15C4.16,15 1,11.84 1,8C1,4.16 4.16,1 8,1M8,11C7.451,11 7,11.451 7,12C7,12.549 7.451,13 8,13C8.549,13 9,12.549 9,12C9,11.451 8.549,11 8,11M8.585,3.058C7.397,2.821 6.178,3.326 5.505,4.333C5.397,4.497 5.339,4.688 5.339,4.884C5.339,5.433 5.791,5.884 6.339,5.884C6.671,5.884 6.982,5.719 7.168,5.444C7.354,5.169 7.665,5.004 7.997,5.004C8.546,5.004 8.998,5.456 8.998,6.005C8.998,6.134 8.973,6.263 8.924,6.383C8.837,6.594 8.679,6.769 8.479,6.878C8.169,7.048 7.819,7.29 7.539,7.619C7.251,7.953 7,8.42 7,9L7.005,9.103C7.056,9.611 7.489,10.003 8,10.003C8.511,10.003 8.944,9.611 8.995,9.103L9,9.01C8.999,9.014 9,8.985 9.058,8.919C9.168,8.802 9.297,8.705 9.439,8.632C10.04,8.304 10.51,7.779 10.772,7.147C10.923,6.783 11,6.393 11,5.999C11,4.574 9.984,3.335 8.586,3.057" style="fill:white;fill-rule:nonzero;"/>
</svg>
