<?xml version="1.0" encoding="UTF-8" standalone="no"?>
<!DOCTYPE svg PUBLIC "-//W3C//DTD SVG 1.1//EN" "http://www.w3.org/Graphics/SVG/1.1/DTD/svg11.dtd">
<svg width="100%" height="100%" viewBox="0 0 16 16" version="1.1" xmlns="http://www.w3.org/2000/svg" xmlns:xlink="http://www.w3.org/1999/xlink" xml:space="preserve" xmlns:serif="http://www.serif.com/" style="fill-rule:evenodd;clip-rule:evenodd;stroke-linejoin:round;stroke-miterlimit:2;">
    <g transform="matrix(1,0,0,1,-0.826347,-0.195725)">
        <g>
            <g transform="matrix(0.755028,0,0,0.755028,1.32524,1.09607)">
                <g>
                    <path d="M4.675,9C5.95,9 6.999,10.049 7,11.324L7,11.701C7,12.521 6.626,13.299 5.986,13.811L5.806,13.955C4.961,14.631 3.91,15 2.827,15L1.693,15C1.419,15 1.193,14.774 1.193,14.5C1.193,14.446 1.202,14.393 1.219,14.342L2.47,10.59C2.785,9.643 3.677,9 4.675,9M13.551,1C14.346,1.001 14.999,1.655 14.999,2.45C14.999,2.804 14.869,3.147 14.634,3.412L7.973,10.905C7.782,9.406 6.593,8.217 5.094,8.026L12.588,1.366C12.853,1.13 13.196,1 13.551,1" style="fill:white;fill-rule:nonzero;"/>
                    <g transform="matrix(0.694214,0,0,0.694214,8.26353,7.39311)">
                        <path d="M8,7C8.549,7 9,7.451 9,8C9,8.549 8.549,9 8,9C7.451,9 7,8.549 7,8C7,7.451 7.451,7 8,7" style="fill:white;fill-rule:nonzero;"/>
                    </g>
                    <g transform="matrix(0.694214,0,0,0.694214,8.26353,7.39311)">
                        <path d="M8,1C11.84,1 15,4.16 15,8C15,11.84 11.84,15 8,15C4.16,15 1,11.84 1,8C1,4.16 4.16,1 8,1M9,4C9,4.549 8.549,5 8,5C7.451,5 7,4.549 7,4L7,3.1C5.041,3.502 3.502,5.041 3.1,7L4,7C4.549,7 5,7.451 5,8C5,8.549 4.549,9 4,9L3.1,9C3.5,10.96 5.04,12.5 7,12.9L7,12C7,11.451 7.451,11 8,11C8.549,11 9,11.451 9,12L9,12.9C10.96,12.5 12.5,10.96 12.9,9L12,9C11.451,9 11,8.549 11,8C11,7.451 11.451,7 12,7L12.9,7C12.498,5.041 10.959,3.502 9,3.1L9,4Z" style="fill:white;fill-rule:nonzero;"/>
                    </g>
                </g>
            </g>
        </g>
    </g>
</svg>
