<?xml version="1.0" encoding="UTF-8" standalone="no"?>
<!DOCTYPE svg PUBLIC "-//W3C//DTD SVG 1.1//EN" "http://www.w3.org/Graphics/SVG/1.1/DTD/svg11.dtd">
<svg width="100%" height="100%" viewBox="0 0 16 16" version="1.1" xmlns="http://www.w3.org/2000/svg" xmlns:xlink="http://www.w3.org/1999/xlink" xml:space="preserve" xmlns:serif="http://www.serif.com/" style="fill-rule:evenodd;clip-rule:evenodd;stroke-linejoin:round;stroke-miterlimit:2;">
    <g transform="matrix(1,0,0,1,-0.220115,-0.239161)">
        <g>
            <g>
                <g transform="matrix(0.755028,0,0,0.755028,1.32706,1.06316)">
                    <path d="M4.675,9C5.95,9 6.999,10.049 7,11.324L7,11.701C7,12.521 6.626,13.299 5.986,13.811L5.806,13.955C4.961,14.631 3.91,15 2.827,15L1.693,15C1.419,15 1.193,14.774 1.193,14.5C1.193,14.446 1.202,14.393 1.219,14.342L2.47,10.59C2.785,9.643 3.677,9 4.675,9M13.551,1C14.346,1.001 14.999,1.655 14.999,2.45C14.999,2.804 14.869,3.147 14.634,3.412L7.973,10.905C7.782,9.406 6.593,8.217 5.094,8.026L12.588,1.366C12.853,1.13 13.196,1 13.551,1" style="fill:white;fill-rule:nonzero;"/>
                </g>
                <g transform="matrix(0.574488,0,0,0.574488,6.74408,6.04282)">
                    <path d="M7.29,1.335C7.463,1.12 7.724,0.994 8,0.994C8.276,0.994 8.537,1.12 8.71,1.335C10.092,3.025 13,6.949 13,10C13,12.743 10.743,15 8,15C5.257,15 3,12.743 3,10C3,6.949 5.909,3.025 7.29,1.335" style="fill:white;fill-rule:nonzero;"/>
                </g>
            </g>
        </g>
    </g>
</svg>
