<?xml version="1.0" encoding="UTF-8" standalone="no"?>
<!DOCTYPE svg PUBLIC "-//W3C//DTD SVG 1.1//EN" "http://www.w3.org/Graphics/SVG/1.1/DTD/svg11.dtd">
<svg width="100%" height="100%" viewBox="0 0 16 16" version="1.1" xmlns="http://www.w3.org/2000/svg" xmlns:xlink="http://www.w3.org/1999/xlink" xml:space="preserve" xmlns:serif="http://www.serif.com/" style="fill-rule:evenodd;clip-rule:evenodd;stroke-linejoin:round;stroke-miterlimit:2;">
    <g transform="matrix(1,0,0,1,-0.826347,-0.195725)">
        <g>
            <g transform="matrix(0.755028,0,0,0.755028,1.32706,1.06316)">
                <path d="M4.675,9C5.95,9 6.999,10.049 7,11.324L7,11.701C7,12.521 6.626,13.299 5.986,13.811L5.806,13.955C4.961,14.631 3.91,15 2.827,15L1.693,15C1.419,15 1.193,14.774 1.193,14.5C1.193,14.446 1.202,14.393 1.219,14.342L2.47,10.59C2.785,9.643 3.677,9 4.675,9M13.551,1C14.346,1.001 14.999,1.655 14.999,2.45C14.999,2.804 14.869,3.147 14.634,3.412L7.973,10.905C7.782,9.406 6.593,8.217 5.094,8.026L12.588,1.366C12.853,1.13 13.196,1 13.551,1" style="fill:white;fill-rule:nonzero;"/>
            </g>
            <g transform="matrix(0.663255,0,0,0.663255,5.47605,5.28768)">
                <path d="M8.106,2.43C8.293,2.161 8.6,2 8.928,2C9.477,2 9.928,2.451 9.928,3C9.928,3.204 9.866,3.403 9.75,3.57L6.766,7.874C7.323,8.391 7.793,8.996 8.156,9.664C8.548,10.391 8.809,11.182 8.925,12L14,12C14.549,12 15,12.451 15,13C15,13.549 14.549,14 14,14C14,14 2,14 2,14C1.451,14 1,13.549 1,13C1,12.796 1.062,12.597 1.178,12.43L8.106,2.43ZM3.91,12L6.898,12C6.8,11.517 6.632,11.052 6.398,10.618C6.185,10.226 5.92,9.865 5.611,9.543L3.91,12Z" style="fill:white;fill-rule:nonzero;"/>
            </g>
        </g>
    </g>
</svg>
