<?xml version="1.0" encoding="UTF-8" standalone="no"?>
<!DOCTYPE svg PUBLIC "-//W3C//DTD SVG 1.1//EN" "http://www.w3.org/Graphics/SVG/1.1/DTD/svg11.dtd">
<svg width="100%" height="100%" viewBox="0 0 16 16" version="1.1" xmlns="http://www.w3.org/2000/svg" xmlns:xlink="http://www.w3.org/1999/xlink" xml:space="preserve" xmlns:serif="http://www.serif.com/" style="fill-rule:evenodd;clip-rule:evenodd;stroke-linejoin:round;stroke-miterlimit:2;">
    <path d="M8,1C8.549,1 9,1.451 9,2L9,7L14,7C14.549,7 15,7.451 15,8C15,8.549 14.549,9 14,9L9,9L9,14C9,14.549 8.549,15 8,15C7.451,15 7,14.549 7,14L7,9L2,9C1.451,9 1,8.549 1,8C1,7.451 1.451,7 2,7L7,7L7,2C7,1.451 7.451,1 8,1" style="fill:white;fill-rule:nonzero;"/>
</svg>
