<?xml version="1.0" encoding="UTF-8" standalone="no"?>
<!DOCTYPE svg PUBLIC "-//W3C//DTD SVG 1.1//EN" "http://www.w3.org/Graphics/SVG/1.1/DTD/svg11.dtd">
<svg fill="#ffffff" width="100%" height="100%" viewBox="0 0 14 14" version="1.1" xmlns="http://www.w3.org/2000/svg" xmlns:xlink="http://www.w3.org/1999/xlink" xml:space="preserve" xmlns:serif="http://www.serif.com/" style="fill-rule:evenodd;clip-rule:evenodd;stroke-linejoin:round;stroke-miterlimit:2;">
    <path d="M1.5,1.75C1.5,1.612 1.612,1.5 1.75,1.5L2.25,1.5C2.664,1.5 3,1.164 3,0.75C3,0.336 2.664,0 2.25,0L1.75,0C0.784,0 0,0.784 0,1.75L0,2.25C0,2.664 0.336,3 0.75,3C1.164,3 1.5,2.664 1.5,2.25L1.5,1.75ZM11,0.75C11,0.336 11.336,0 11.75,0L12.25,0C13.217,0 14,0.784 14,1.75L14,2.25C14,2.664 13.664,3 13.25,3C12.836,3 12.5,2.664 12.5,2.25L12.5,1.75C12.5,1.612 12.388,1.5 12.25,1.5L11.75,1.5C11.336,1.5 11,1.164 11,0.75ZM13.25,11C13.664,11 14,11.336 14,11.75L14,12.25C14,13.217 13.217,14 12.25,14L11.75,14C11.336,14 11,13.664 11,13.25C11,12.836 11.336,12.5 11.75,12.5L12.25,12.5C12.388,12.5 12.5,12.388 12.5,12.25L12.5,11.75C12.5,11.336 12.836,11 13.25,11ZM1.5,11.75C1.5,11.336 1.164,11 0.75,11C0.336,11 0,11.336 0,11.75L0,12.25C0,13.217 0.784,14 1.75,14L2.25,14C2.664,14 3,13.664 3,13.25C3,12.836 2.664,12.5 2.25,12.5L1.75,12.5C1.612,12.5 1.5,12.388 1.5,12.25L1.5,11.75ZM5.25,13.25C5.25,12.836 5.586,12.5 6,12.5L8,12.5C8.414,12.5 8.75,12.836 8.75,13.25C8.75,13.664 8.414,14 8,14L6,14C5.586,14 5.25,13.664 5.25,13.25ZM6,0C5.586,0 5.25,0.336 5.25,0.75C5.25,1.164 5.586,1.5 6,1.5L8,1.5C8.414,1.5 8.75,1.164 8.75,0.75C8.75,0.336 8.414,0 8,0L6,0ZM0.75,5.25C1.164,5.25 1.5,5.586 1.5,6L1.5,8C1.5,8.414 1.164,8.75 0.75,8.75C0.336,8.75 0,8.414 0,8L0,6C0,5.586 0.336,5.25 0.75,5.25ZM14,6C14,5.586 13.664,5.25 13.25,5.25C12.836,5.25 12.5,5.586 12.5,6L12.5,8C12.5,8.414 12.836,8.75 13.25,8.75C13.664,8.75 14,8.414 14,8L14,6Z"/>
</svg>
