<?xml version="1.0" encoding="UTF-8" standalone="no"?>
<!DOCTYPE svg PUBLIC "-//W3C//DTD SVG 1.1//EN" "http://www.w3.org/Graphics/SVG/1.1/DTD/svg11.dtd">
<svg width="100%" height="100%" viewBox="0 0 16 16" version="1.1" xmlns="http://www.w3.org/2000/svg" xmlns:xlink="http://www.w3.org/1999/xlink" xml:space="preserve" xmlns:serif="http://www.serif.com/" style="fill-rule:evenodd;clip-rule:evenodd;stroke-linejoin:round;stroke-miterlimit:2;">
    <path d="M6.939,5.01C7.509,5.054 8.061,5.226 8.558,5.513C9.054,5.799 9.482,6.191 9.815,6.661L8.185,7.818C8.02,7.585 7.807,7.389 7.56,7.245C7.085,6.967 6.508,6.923 5.996,7.125C5.741,7.226 5.506,7.385 5.306,7.594L3.556,9.442C3.201,9.833 2.996,10.366 3.001,10.928C3.006,11.492 3.221,12.022 3.585,12.406C3.947,12.789 4.426,12.996 4.915,13C5.417,13.001 5.899,12.798 6.248,12.438L6.556,12.113C6.744,11.921 7.002,11.812 7.271,11.812C7.819,11.812 8.271,12.264 8.271,12.812C8.271,13.062 8.177,13.304 8.008,13.488L7.693,13.82L7.681,13.833C6.951,14.585 5.944,15.006 4.896,15C3.848,14.986 2.85,14.546 2.133,13.782C1.411,13.013 1.006,11.998 1,10.943C0.988,9.888 1.376,8.867 2.085,8.086L2.097,8.073L3.855,6.218C4.249,5.801 4.729,5.475 5.263,5.265C5.795,5.055 6.368,4.968 6.939,5.011" style="fill:white;fill-rule:nonzero;"/>
    <path d="M11.105,1C12.152,1.014 13.15,1.454 13.867,2.218C14.589,2.987 14.994,4.002 15,5.057C15.012,6.112 14.624,7.134 13.915,7.915L13.903,7.928L12.145,9.782C11.751,10.199 11.271,10.525 10.737,10.735C9.659,11.159 8.445,11.068 7.442,10.488C6.945,10.199 6.517,9.807 6.185,9.338L7.815,8.182C7.985,8.422 8.201,8.616 8.441,8.755C8.916,9.033 9.493,9.077 10.004,8.875C10.259,8.775 10.494,8.615 10.694,8.406L12.445,6.559C12.8,6.168 13.005,5.635 13,5.073C12.999,4.524 12.79,3.995 12.416,3.593C12.072,3.223 11.591,3.009 11.086,3C10.583,2.999 10.101,3.203 9.752,3.564L9.439,3.892C9.251,4.081 8.996,4.187 8.73,4.187C8.182,4.187 7.73,3.735 7.73,3.187C7.73,2.937 7.824,2.696 7.992,2.512L8.311,2.178L8.321,2.168C9.051,1.416 10.056,0.994 11.104,1" style="fill:white;fill-rule:nonzero;"/>
</svg>
