<?xml version="1.0" encoding="UTF-8" standalone="no"?>
<!DOCTYPE svg PUBLIC "-//W3C//DTD SVG 1.1//EN" "http://www.w3.org/Graphics/SVG/1.1/DTD/svg11.dtd">
<svg width="100%" height="100%" viewBox="0 0 14 14" version="1.1" xmlns="http://www.w3.org/2000/svg" xmlns:xlink="http://www.w3.org/1999/xlink" xml:space="preserve" xmlns:serif="http://www.serif.com/" style="fill-rule:evenodd;clip-rule:evenodd;stroke-linejoin:round;stroke-miterlimit:2;">
    <g id="flip-vertical-circle-1--flip-bottom-object-work">
        <path id="Union" d="M8.61,0.183C7.551,-0.061 6.449,-0.061 5.39,0.183C4.986,0.275 4.734,0.678 4.827,1.081C4.919,1.485 5.322,1.737 5.726,1.644C6.564,1.452 7.436,1.452 8.274,1.644C8.678,1.737 9.081,1.485 9.173,1.081C9.266,0.678 9.014,0.275 8.61,0.183ZM3.588,1.715C3.852,2.034 3.806,2.507 3.487,2.771C3.159,3.041 2.865,3.35 2.61,3.69L2.606,3.695L2.606,3.695C2.349,4.031 2.135,4.398 1.968,4.786C1.804,5.167 1.363,5.343 0.983,5.179C0.602,5.016 0.426,4.575 0.59,4.194C0.805,3.693 1.081,3.221 1.411,2.788C1.737,2.353 2.113,1.959 2.532,1.614C2.852,1.35 3.325,1.395 3.588,1.715ZM11.567,1.624C11.253,1.354 10.779,1.389 10.509,1.702C10.238,2.016 10.273,2.49 10.587,2.76C10.903,3.033 11.186,3.341 11.43,3.679L11.442,3.695C11.699,4.031 11.913,4.398 12.08,4.786C12.244,5.167 12.685,5.343 13.065,5.179C13.446,5.016 13.622,4.575 13.458,4.194C13.244,3.695 12.969,3.225 12.641,2.793C12.329,2.363 11.969,1.971 11.567,1.624ZM0.22,6.47C0.36,6.329 0.551,6.25 0.75,6.25L13.25,6.25C13.449,6.25 13.64,6.329 13.78,6.47C13.921,6.61 14,6.801 14,7C14,8.857 13.262,10.637 11.95,11.95C10.637,13.262 8.857,14 7,14C5.143,14 3.363,13.262 2.05,11.95C0.737,10.637 0,8.857 0,7C0,6.801 0.079,6.61 0.22,6.47Z" style="fill:white;"/>
    </g>
</svg>
