<?xml version="1.0" encoding="UTF-8" standalone="no"?>
<!DOCTYPE svg PUBLIC "-//W3C//DTD SVG 1.1//EN" "http://www.w3.org/Graphics/SVG/1.1/DTD/svg11.dtd">
<svg width="100%" height="100%" viewBox="0 0 16 16" version="1.1" xmlns="http://www.w3.org/2000/svg" xmlns:xlink="http://www.w3.org/1999/xlink" xml:space="preserve" xmlns:serif="http://www.serif.com/" style="fill-rule:evenodd;clip-rule:evenodd;stroke-linejoin:round;stroke-miterlimit:2;">
    <path d="M7.536,1.16C7.612,0.971 7.796,0.846 8,0.846C8.204,0.846 8.388,0.971 8.464,1.16L9.896,4.74C9.961,4.902 10.106,5.019 10.278,5.048L14.744,5.792C14.984,5.832 15.161,6.042 15.161,6.285C15.161,6.453 15.077,6.609 14.937,6.702L11.61,8.896C11.441,9.008 11.355,9.212 11.395,9.411L12.241,13.685C12.247,13.717 12.25,13.749 12.25,13.782C12.25,14.056 12.025,14.282 11.75,14.282C11.64,14.282 11.532,14.245 11.444,14.177L8.307,11.74C8.127,11.6 7.873,11.6 7.693,11.74L4.558,14.178C4.47,14.247 4.362,14.284 4.25,14.284C3.976,14.284 3.75,14.058 3.75,13.784C3.75,13.751 3.754,13.718 3.76,13.686L4.606,9.412C4.646,9.213 4.56,9.009 4.391,8.897L1.063,6.701C0.923,6.608 0.839,6.452 0.839,6.284C0.839,6.041 1.016,5.831 1.256,5.791L5.722,5.047C5.895,5.019 6.04,4.901 6.105,4.739L7.536,1.16Z" style="fill:white;fill-rule:nonzero;"/>
</svg>
