<?xml version="1.0" encoding="UTF-8" standalone="no"?>
<!DOCTYPE svg PUBLIC "-//W3C//DTD SVG 1.1//EN" "http://www.w3.org/Graphics/SVG/1.1/DTD/svg11.dtd">
<svg width="100%" height="100%" viewBox="0 0 16 16" version="1.1" xmlns="http://www.w3.org/2000/svg" xmlns:xlink="http://www.w3.org/1999/xlink" xml:space="preserve" xmlns:serif="http://www.serif.com/" style="fill-rule:evenodd;clip-rule:evenodd;stroke-linejoin:round;stroke-miterlimit:2;">
    <path d="M12.099,14.11C12.043,14.615 11.612,15.001 11.104,15L4.897,15C4.389,15.001 3.958,14.615 3.902,14.11L3,6L13,6L12.099,14.11ZM10,1C10.549,1 11,1.451 11,2L11,3L13,3C13.549,3 14,3.451 14,4L14,5L2,5L2,4C2,3.451 2.451,3 3,3L5,3L5,2C5,1.451 5.451,1 6,1L10,1ZM10,2L6,2L6,3L10,3L10,2Z" style="fill:white;fill-rule:nonzero;"/>
</svg>
