<?xml version="1.0" encoding="UTF-8" standalone="no"?>
<!DOCTYPE svg PUBLIC "-//W3C//DTD SVG 1.1//EN" "http://www.w3.org/Graphics/SVG/1.1/DTD/svg11.dtd">
<svg width="100%" height="100%" viewBox="0 0 16 16" version="1.1" xmlns="http://www.w3.org/2000/svg" xmlns:xlink="http://www.w3.org/1999/xlink" xml:space="preserve" xmlns:serif="http://www.serif.com/" style="fill-rule:evenodd;clip-rule:evenodd;stroke-linecap:square;stroke-linejoin:round;stroke-miterlimit:1.5;">
    <path d="M13,1C14.097,1 15,1.903 15,3L15,10.172L14.99,10.369C14.944,10.829 14.741,11.259 14.414,11.586L11.586,14.414L11.44,14.547C11.082,14.84 10.634,15 10.172,15L3,15L2.796,14.99C1.781,14.886 1,14.021 1,13L1,5.828C1,5.366 1.16,4.918 1.453,4.561L1.586,4.414L4.414,1.586C4.789,1.211 5.298,1 5.828,1L13,1ZM5.828,2C5.563,2 5.308,2.106 5.121,2.293L2.414,5L7,5L7,6L2,6L2,13C2,13.549 2.451,14 3,14L10,14L10,9L11,9L11,13.586L13.707,10.879C13.894,10.692 14,10.437 14,10.172L14,3C14,2.913 13.988,2.825 13.965,2.741L12.354,4.354L11.647,3.646L13.257,2.034C13.173,2.012 13.087,2 13,2L5.828,2Z" style="fill:white;fill-rule:nonzero;"/>
    <g transform="matrix(0.711577,-0.702608,0.702608,0.711577,-1.89456,6.60972)">
        <path d="M8.476,5.528L8.476,8.258" style="fill:none;stroke:rgb(161,161,161);stroke-width:1px;"/>
    </g>
    <g transform="matrix(0.581172,0.813781,-0.813781,0.581172,11.9273,-4.98632)">
        <path d="M8.476,5.528L8.476,8.258" style="fill:none;stroke:rgb(161,161,161);stroke-width:1px;"/>
    </g>
    <g transform="matrix(0.957769,0.287538,-0.287538,0.957769,3.50586,-0.839331)">
        <path d="M8.476,5.528L8.476,8.258" style="fill:none;stroke:rgb(161,161,161);stroke-width:1px;"/>
    </g>
    <g transform="matrix(1.3105,0,0,1.3105,0.00501206,-6.70233)">
        <rect x="4.164" y="6.769" width="2.94" height="2.94" style="fill:rgb(241,133,133);"/>
    </g>
    <g transform="matrix(1.3105,0,0,1.3105,2.05465,-1.14415)">
        <rect x="4.164" y="6.769" width="2.94" height="2.94" style="fill:rgb(133,207,241);"/>
    </g>
    <g transform="matrix(1.3105,0,0,1.3105,6.05546,-5.55668)">
        <rect x="4.164" y="6.769" width="2.94" height="2.94" style="fill:rgb(133,241,161);"/>
    </g>
</svg>
