<?xml version="1.0" encoding="utf-8"?>
<!-- Generator: Adobe Illustrator 22.0.0, SVG Export Plug-In . SVG Version: 6.00 Build 0)  -->
<svg version="1.1" id="Layer_1" xmlns="http://www.w3.org/2000/svg" xmlns:xlink="http://www.w3.org/1999/xlink" x="0px" y="0px"
	 viewBox="0 0 16 16" style="enable-background:new 0 0 16 16;" xml:space="preserve">
<style type="text/css">
	.st0{fill:none;stroke:#FFFFFF;stroke-width:1.1;stroke-linejoin:round;}
	.st1{fill:none;stroke:#FFFFFF;stroke-width:0.7;}
	.st2{fill:#FF004D;}
	.st3{fill:#00E436;}
	.st4{fill:#29ADFF;}
	.st5{fill:#FFFFFF;}
</style>
<path class="st0" d="M8,1.2L14.2,5v6L8,14.8L1.8,11V5L8,1.2z"/>
<line class="st1" x1="8" y1="1.6" x2="8" y2="14.4"/>
<line class="st1" x1="2.2" y1="5.2" x2="13.8" y2="10.8"/>
<line class="st1" x1="13.8" y1="5.2" x2="2.2" y2="10.8"/>
<path class="st2" d="M7,6.7h2c0.2,0,0.3,0.1,0.3,0.3v2c0,0.2-0.1,0.3-0.3,0.3H7C6.8,9.3,6.7,9.2,6.7,9V7C6.7,6.8,6.8,6.7,7,6.7z"/>
<path class="st3" d="M1.3,3.9h1.3c0.2,0,0.3,0.1,0.3,0.3v1.3c0,0.2-0.1,0.3-0.3,0.3H1.3C1.1,5.8,1,5.7,1,5.5V4.2
	C1,4,1.1,3.9,1.3,3.9z"/>
<path class="st4" d="M13.4,3.9h1.3C14.9,3.9,15,4,15,4.2v1.3c0,0.2-0.1,0.3-0.3,0.3h-1.3c-0.2,0-0.3-0.1-0.3-0.3V4.2
	C13.1,4,13.2,3.9,13.4,3.9z"/>
<path class="st5" d="M7.4,0.3h1.3c0.2,0,0.3,0.1,0.3,0.3V2c0,0.2-0.1,0.3-0.3,0.3H7.4C7.2,2.3,7.1,2.1,7.1,2V0.6
	C7.1,0.5,7.2,0.3,7.4,0.3z"/>
</svg>
